<svg width="188" height="412" viewBox="0 0 188 412" fill="none" xmlns="http://www.w3.org/2000/svg">
<path d="M38.482 41.8373L44.5815 56.1954L65.3223 54.6857L76.7706 81.6348L61.3317 95.6251L68.1819 111.75L132.641 52.946L125.697 36.5998L38.482 41.8373ZM110.73 50.7806L110.918 51.2224L86.3775 73.2512L77.9789 53.4812L110.73 50.7806Z" fill="#4B52ED"/>
<path d="M74.8061 149.843C78.9901 170.789 91.6962 179.876 113.819 175.457L115.349 175.152C137.707 170.686 142.347 157.767 140.067 146.352C138.468 138.35 135.151 133.384 131.363 129.735L131.222 129.029L160.288 123.223L157.209 107.808L73.6591 124.497C72.622 130.945 73.0432 141.017 74.8061 149.843ZM86.5028 148.363C85.5626 143.656 85.7517 140.314 86.1523 138.032L121.337 131.004C122.749 133.169 125.36 137.053 126.277 141.642C128.228 151.409 125.002 156.704 110.646 159.571L108.528 159.994C93.583 162.98 88.1482 156.601 86.5028 148.363Z" fill="#4B52ED"/>
<path d="M82.9287 224.301C83.0493 241.94 94.2944 254.344 114.694 254.204L116.374 254.193C136.413 254.056 147.499 243.18 147.368 223.98C147.247 206.341 135.762 193.939 115.483 194.078L113.803 194.089C94.1233 194.224 82.7958 204.861 82.9287 224.301ZM94.4501 224.462C94.3959 216.542 98.434 210.395 113.914 210.289L116.554 210.271C129.873 210.18 135.668 215.18 135.727 223.82C135.781 231.74 131.983 237.886 116.263 237.993L113.383 238.013C100.303 238.102 94.5091 233.102 94.4501 224.462Z" fill="#4B52ED"/>
<path d="M78.1546 288.142C76.7414 295.813 78.2506 302.192 81.2102 307.984L81.1015 308.574L75.412 308.99L72.9552 322.326L134.086 333.588L136.935 318.128L90.4371 309.562C89.2974 305.813 88.2881 301.357 89.1578 296.636C90.4622 289.555 93.3536 287.77 99.6084 288.922L140.913 296.532L143.761 281.072L99.2701 272.875C87.2327 270.658 80.307 276.459 78.1546 288.142Z" fill="#4B52ED"/>
<path d="M59.0307 361.556C56.9815 367.323 56.9797 371.27 57.347 373.82L67.1844 377.316C67.2218 375.419 67.7665 372.811 68.5299 370.662C70.4987 365.122 72.9583 363.576 77.9335 365.344L108.237 376.112L103.456 389.568L114.424 393.465L119.205 380.01L133 384.911L138.183 370.325L124.388 365.423L127.161 357.621L116.193 353.724L113.42 361.526L80.7422 349.914C69.0956 345.775 62.8076 350.927 59.0307 361.556Z" fill="#4B52ED"/>
</svg>
