<svg width="286" height="743" viewBox="0 0 286 743" fill="none" xmlns="http://www.w3.org/2000/svg">
<path d="M228.133 642.843C221.559 635.202 215.252 630.814 209.456 628.677L199.722 637.05C204.243 639.177 209.558 642.044 215.506 648.958C226.384 661.602 222.877 673.167 209.414 684.749L206.321 687.41C192.403 699.384 180.711 697.569 171.555 686.926C166.624 681.195 164.376 676.006 161.997 670.296L152.263 678.67C153.471 684.121 156.683 690.064 162.866 697.25C176.952 713.625 196.838 719.628 219.399 700.22L221.673 698.263C242.687 680.186 243.315 660.491 228.133 642.843Z" fill="#4B52ED"/>
<path d="M188.932 589.808C179.41 574.959 163.279 570.477 146.106 581.488L144.692 582.395C127.822 593.212 124.257 608.327 134.62 624.49C144.142 639.339 160.475 643.692 177.547 632.745L178.961 631.839C195.528 621.216 199.425 606.173 188.932 589.808ZM179.104 595.824C183.379 602.491 183.248 609.846 170.217 618.201L167.994 619.626C156.781 626.816 149.212 625.682 144.549 618.409C140.274 611.742 140.203 604.517 153.436 596.032L155.86 594.478C166.871 587.417 174.441 588.551 179.104 595.824Z" fill="#4B52ED"/>
<path d="M157.553 533.776C154.289 526.692 149.38 522.348 143.624 519.319L143.373 518.774L147.784 515.156L142.109 502.84L85.6541 528.854L92.2329 543.131L135.173 523.345C138.265 525.752 141.657 528.813 143.666 533.173C146.679 539.712 145.345 542.837 139.568 545.499L101.423 563.076L108.002 577.353L149.09 558.42C160.206 553.298 162.525 544.566 157.553 533.776Z" fill="#4B52ED"/>
<path d="M135.477 484.248L130.603 469.303L87.8207 483.254C84.4625 480.31 81.3053 475.659 79.5939 470.411C79.1103 468.928 78.706 466.914 78.525 465.585L65.2908 469.901C65.0974 470.469 65.4297 471.875 65.9506 473.472C67.9967 479.747 73.0117 484.675 78.4655 486.304L78.6516 486.875L71.6922 489.144L76.3798 503.519L135.477 484.248Z" fill="#4B52ED"/>
<path d="M118.09 419.222C114.693 403.505 106.3 396.48 93.5147 399.243C82.9585 401.524 78.7863 407.214 78.909 419.71L78.9783 425.711C79.1395 431.569 78.2137 434.102 74.2258 434.964C70.0033 435.877 67.1569 432.931 65.6612 426.011C64.1401 418.974 64.5653 412.989 65.0443 408.957L54.0189 411.34C53.0549 415.968 52.8135 421.667 54.6134 429.995C58.0105 445.712 67.0223 451.622 78.3996 449.163C89.6596 446.729 93.033 439.616 92.8562 429.71L92.9296 423.801C92.7589 417.331 94.0366 414.722 98.0245 413.86C102.247 412.947 105.303 415.724 107.077 423.935C108.903 432.38 108.183 437.569 107.203 442.692L118.228 440.309C119.794 435.059 119.814 427.198 118.09 419.222Z" fill="#4B52ED"/>
<path d="M107.818 352.014C106.82 341.26 103.276 334.237 100.01 330.202L89.7337 331.155C92.4916 336.202 94.827 341.891 95.5364 349.538C96.5783 360.77 93.2338 367.588 81.3848 369.771L77.7049 330.102L71.9695 330.634C52.1347 332.474 42.2319 341.346 43.9721 360.106C45.5239 376.834 57.4194 388.144 77.8517 386.248L79.405 386.104C99.2398 384.264 109.746 372.805 107.818 352.014ZM55.1177 359.433C54.4083 351.786 58.1051 347.466 68.9784 346.458L71.2284 370.714C59.4411 370.963 55.6386 365.049 55.1177 359.433Z" fill="#4B52ED"/>
<path d="M104.111 299.457L105.113 284.25L66.0043 270.008L66.0359 269.529L106.659 260.78L107.668 245.454L46.7469 224.604L45.832 238.494L86.9432 251.545L86.9116 252.024L44.3413 261.125L43.5211 273.578L84.5376 288.065L84.506 288.544L42.0462 295.97L40.9735 312.254L104.111 299.457Z" fill="#4B52ED"/>
<path d="M119.341 188.49C123.326 171.306 115.273 156.628 95.4003 152.02L93.7638 151.64C74.2417 147.114 60.9306 155.114 56.5939 173.818C52.6095 191.002 60.896 205.734 80.6519 210.315L82.2885 210.694C101.46 215.14 114.95 207.428 119.341 188.49ZM108.173 185.654C106.384 193.369 101.028 198.41 85.9476 194.913L83.3758 194.317C70.4001 191.308 65.9273 185.097 67.8789 176.681C69.6678 168.965 74.7909 163.871 90.1046 167.422L92.9102 168.072C105.652 171.027 110.125 177.237 108.173 185.654Z" fill="#4B52ED"/>
<path d="M130.378 143.889L135.686 129.092L93.3289 113.898C92.4793 109.514 92.8342 103.904 94.698 98.7085C95.2248 97.2401 96.1394 95.4009 96.811 94.2394L83.7085 89.5395C83.2076 89.8697 82.6084 91.1846 82.0412 92.766C79.8127 98.9784 80.7556 105.946 84.0668 110.576L83.8642 111.141L76.9741 108.669L71.8689 122.901L130.378 143.889Z" fill="#4B52ED"/>
<path d="M147.621 97.3187L154.613 83.1055L75.9024 44.3831L68.9101 58.5963L147.621 97.3187ZM164.148 63.724L171.67 48.4341C155.798 50.5222 147.916 51.5927 132.097 53.5731L115.366 22.3397L108.268 36.7682C115.22 49.5497 118.589 56.0216 125.862 68.6937C141.146 66.9851 148.652 65.8633 164.148 63.724Z" fill="#4B52ED"/>
</svg>
