<svg width="529" height="643" viewBox="0 0 529 643" fill="none" xmlns="http://www.w3.org/2000/svg">
<path d="M31.7607 107.476C48.1222 112.236 58.0822 104.655 61.0691 91.5507L74.2966 33.5191L57.7047 28.6915L44.8772 84.9681C43.117 92.69 38.2576 95.1436 30.6529 92.9309C25.6984 91.4893 21.7371 89.4634 18.8928 87.3882L16.1726 99.3221C19.8406 102.635 24.1561 105.263 31.7607 107.476Z" fill="#4B52ED"/>
<path d="M88.315 128.174C95.4762 131.265 101.131 130.971 104.818 128.654L105.479 128.94L104.966 134.19L116.755 139.279L131.018 97.1054C135.323 84.3738 129.193 75.9952 115.752 70.1926C107.819 66.7681 101.045 65.1463 94.7341 64.7668L91.1973 75.2249C95.3276 75.7053 100.626 77.2111 106.245 79.6367C115.61 83.6795 118.118 86.7164 115.657 93.9916L114.312 97.9702L101.214 94.1396C89.0692 90.8507 79.8859 92.6182 76.1184 103.758C72.274 115.126 77.8487 123.655 88.315 128.174ZM96.2536 120.007C91.5162 117.961 88.8697 114.214 90.715 108.757C92.5604 103.301 95.8965 102.396 101.487 104.158L111.198 107.178L106.584 120.819C104.207 121.877 99.8892 121.576 96.2536 120.007Z" fill="#4B52ED"/>
<path d="M155.338 163.261C162.993 167.761 168.913 168.609 173.33 168.435L178.099 158.08C174.756 157.916 169.404 157.264 163.094 153.554C153.266 147.778 151.073 139.979 156.795 127.553L157.798 125.373C162.868 114.364 170.553 112.233 179.243 117.341C185.45 120.99 187.948 123.843 191.283 128.02L196.252 117.229C193.792 113.151 190.153 109.35 183.221 105.276C167.393 95.972 152.061 99.0093 143.127 118.411L142.374 120.046C133.841 138.576 138.992 153.653 155.338 163.261Z" fill="#4B52ED"/>
<path d="M183.831 181.257L196.392 190.907L241.625 115.748L229.064 106.098L183.831 181.257ZM213.521 204.066L227.033 214.447C226.86 197.625 226.742 189.265 226.664 172.515L257.882 160.414L245.131 150.618C232.344 155.679 225.886 158.085 213.165 163.498C213.049 179.647 213.257 187.625 213.521 204.066Z" fill="#4B52ED"/>
<path d="M249.23 238.997C260.744 250.221 271.01 250.912 278.948 240.516C285.503 231.933 285.357 224.47 278.122 213.923L274.64 208.865C271.171 203.986 270.412 201.25 272.888 198.007C275.51 194.574 279.313 195.286 284.383 200.229C289.538 205.254 292.643 210.61 294.592 214.34L301.438 205.375C299.51 200.834 296.431 195.836 290.33 189.889C278.816 178.664 268.729 179.311 261.664 188.562C254.672 197.718 256.227 205.889 262.022 214.199L265.345 219.269C269.171 224.662 269.711 227.685 267.235 230.927C264.613 234.361 260.75 233.922 254.735 228.059C248.548 222.028 246.118 217.163 243.919 212.191L237.073 221.156C238.908 226.605 243.387 233.301 249.23 238.997Z" fill="#4B52ED"/>
<path d="M294.099 290.134C305.195 303.848 320.807 305.532 334.998 290.876L336.166 289.669C350.106 275.272 351.076 258.859 339 243.932C327.905 230.219 312.125 228.706 298.018 243.276L296.849 244.483C283.16 258.621 281.872 275.021 294.099 290.134ZM302.264 282.044C297.282 275.887 296.271 268.198 307.039 257.077L308.875 255.18C318.141 245.611 325.318 245.391 330.752 252.108C335.734 258.265 336.912 265.782 325.977 277.075L323.974 279.144C314.875 288.541 307.698 288.761 302.264 282.044Z" fill="#4B52ED"/>
<path d="M323.071 328.782L331.324 342.161L368.659 312.763C371.617 314.834 375.52 317.982 377.788 321.659C381.82 328.196 381.069 331.519 376.449 335.156L343.168 361.362L351.484 374.844L387.687 346.337C397.398 338.69 397.988 330.336 391.751 320.224C387.719 313.688 381.708 309.165 375.824 307.121L375.509 306.611L379.846 303.196L371.908 290.327L323.071 328.782Z" fill="#4B52ED"/>
<path d="M377.248 431.763L395.708 479.176L407.421 473.355L395.144 441.82L457.148 411.004L450.965 395.125L377.248 431.763Z" fill="#4B52ED"/>
<path d="M406.992 525.667C409.756 536.107 414.358 542.261 418.192 545.515L427.969 542.211C424.458 537.837 421.247 532.729 419.282 525.305C416.395 514.4 418.488 506.868 429.58 501.982L439.776 540.495L445.233 538.651C464.105 532.273 472.195 521.198 467.374 502.985C463.074 486.745 449.679 478.254 430.239 484.824L428.761 485.324C409.89 491.701 401.648 505.482 406.992 525.667ZM456.709 506.21C458.674 513.635 455.823 518.769 445.478 522.265L439.243 498.717C450.599 495.763 455.265 500.758 456.709 506.21Z" fill="#4B52ED"/>
<path d="M420.248 594.643C423.296 615.785 435.427 625.135 457.614 621.052L459.148 620.769C481.572 616.643 486.857 603.722 485.196 592.201C484.031 584.124 481.001 579.073 477.434 575.341L477.332 574.628L506.482 569.263L504.239 553.704L420.446 569.125C419.077 575.595 418.964 585.735 420.248 594.643ZM431.934 593.346C431.249 588.595 431.613 585.236 432.131 582.946L467.418 576.452C468.705 578.654 471.092 582.604 471.759 587.236C473.181 597.094 469.701 602.368 455.302 605.017L453.178 605.408C438.19 608.167 433.133 601.66 431.934 593.346Z" fill="#4B52ED"/>
</svg>
