<svg width="784" height="784" viewBox="0 0 784 784" fill="none" xmlns="http://www.w3.org/2000/svg">
<path d="M60.8137 322.799C71.3923 309.44 75.4645 293.099 74.239 279.715L68.8117 220.443L58.0842 233.99L63.3473 291.469C64.0694 299.356 61.8012 306.353 56.8844 312.562C53.6811 316.607 50.9226 319.158 48.8017 320.503L49.9178 332.692C52.7967 331.456 55.8969 329.008 60.8137 322.799Z" fill="#4B52ED"/>
<path d="M124.171 246.294C129.712 240.804 133.283 234.574 134.985 229.041L135.497 228.534L136.71 232.716L145.832 223.679L142.641 179.274C141.678 165.868 135.248 166.598 124.848 176.902C118.71 182.983 113.852 189.079 109.659 195.541L110.45 206.552C113.263 202.484 117.132 197.881 121.48 193.573C128.726 186.394 131.241 185.825 131.792 193.485L132.093 197.674L122.495 208.978C113.673 219.642 108.255 230.651 109.098 242.381C109.958 254.35 116.073 254.317 124.171 246.294ZM126.901 232.178C123.236 235.81 120.421 236.034 120.008 230.289C119.596 224.544 121.487 220.362 125.621 215.626L132.789 207.369L133.821 221.732C132.595 224.999 129.714 229.391 126.901 232.178Z" fill="#4B52ED"/>
<path d="M202.952 175.523C210.144 170.315 214.69 164.659 217.771 159.94L217.174 148.556C214.728 151.944 210.663 157.127 204.734 161.421C195.501 168.107 190.929 165.572 190.211 151.911L190.085 149.514C189.45 137.411 194.105 128.069 202.269 122.157C208.1 117.934 210.981 117.091 214.97 116.193L214.347 104.329C211.02 104.375 206.96 105.823 200.448 110.538C185.578 121.307 175.823 139.194 176.943 160.524L177.037 162.322C178.107 182.694 187.596 186.644 202.952 175.523Z" fill="#4B52ED"/>
<path d="M245.921 144.639L260.32 138.037L257.405 50.3657L243.006 56.9679L245.921 144.639ZM279.954 129.034L295.443 121.932C286.929 112.321 282.673 107.575 274.268 97.9133L292.073 60.5264L277.456 67.2286C270.215 82.6032 266.484 90.2806 259.469 105.795C267.426 115.297 271.56 119.733 279.954 129.034Z" fill="#4B52ED"/>
<path d="M336.454 111.728C352.212 108.522 360.579 100.081 360.386 87.0024C360.227 76.2036 355.563 71.8571 343.531 71.7771L337.752 71.7493C332.091 71.8176 329.836 70.8322 329.776 66.7526C329.712 62.4331 333.09 59.5797 340.028 58.1684C347.084 56.7332 352.753 57.2649 356.535 57.8194L356.369 46.5406C352.107 45.4819 346.677 45.1424 338.328 46.8406C322.571 50.0459 315.156 59.1359 315.328 70.7746C315.498 82.2934 321.683 85.849 331.237 85.8313L336.9 86.0031C343.15 85.9352 345.411 87.2805 345.471 91.3601C345.535 95.6796 342.278 98.7491 334.047 100.423C325.58 102.146 320.732 101.327 315.998 100.244L316.165 111.522C320.907 113.205 328.458 113.354 336.454 111.728Z" fill="#4B52ED"/>
<path d="M408.333 106.104C425.943 107.122 438.449 96.6817 438.535 76.2819L438.542 74.6019C438.626 54.5621 427.89 42.7792 408.722 41.6717C391.112 40.6541 378.605 51.3341 378.52 71.614L378.513 73.2939C378.43 92.9738 388.925 104.983 408.333 106.104ZM408.62 94.5981C400.714 94.1413 394.621 89.7083 394.686 74.2284L394.697 71.5884C394.753 58.2685 399.808 52.7993 408.434 53.2977C416.341 53.7546 422.435 57.9475 422.369 73.6674L422.357 76.5474C422.302 89.6273 417.246 95.0965 408.62 94.5981Z" fill="#4B52ED"/>
<path d="M459.058 111.825L473.897 117.014L475.101 69.5088C478.423 69.2179 483.11 69.1624 487.187 70.5883C494.437 73.1233 496.415 76.2355 496.266 82.1136L495.192 124.46L510.145 129.688L511.313 83.6231C511.626 71.2671 505.86 64.289 494.646 60.3677C487.397 57.8328 480.417 58.1758 475.332 60.3917L474.766 60.1937L474.906 54.6754L460.633 49.6847L459.058 111.825Z" fill="#4B52ED"/>
<path d="M575.197 168.279L615.151 199.783L615.897 186.724L589.325 165.771L593.277 96.6442L579.896 86.0934L575.197 168.279Z" fill="#4B52ED"/>
<path d="M663.05 248.81C670.392 256.73 675.593 259.227 678.755 259.524L679.559 249.236C675.792 247.637 671.655 245.119 666.434 239.486C658.765 231.214 654.669 222.514 654.871 209.758L681.954 238.976L682.403 233.234C683.957 213.374 679.406 196.918 666.598 183.101C655.177 170.781 645.932 172.483 644.332 192.941L644.211 194.496C642.657 214.355 648.856 233.497 663.05 248.81ZM665.483 193.963C670.704 199.596 673.078 206.568 672.226 217.454L655.666 199.589C657.154 188.481 661.649 189.827 665.483 193.963Z" fill="#4B52ED"/>
<path d="M728.284 329.2C740.726 346.562 748.442 345.203 750.713 322.757L750.87 321.205C753.165 298.521 747.028 281.918 740.247 272.457C735.494 265.824 732.049 263.606 729.231 263.079L728.812 262.494L731.795 233.004L722.638 220.227L714.062 304.994C717.397 312.237 723.042 321.885 728.284 329.2ZM729.957 318.182C727.161 314.281 725.359 310.812 724.185 308.22L727.797 272.522C729.291 273.518 731.989 275.239 734.715 279.043C740.517 287.138 742.75 295.024 741.277 309.589L741.059 311.738C739.525 326.901 734.85 325.01 729.957 318.182Z" fill="#4B52ED"/>
</svg>
